<svg xmlns="http://www.w3.org/2000/svg" width="24" height="24" viewBox="0 0 24 24"><defs><style>.a,.b{fill:#697077;}.a{opacity:0;}</style></defs><g transform="translate(863 -198)"><rect class="a" width="24" height="24" transform="translate(-863 198)"/><path class="b" d="M6,1V3H5A2.006,2.006,0,0,0,3,5V19a2.006,2.006,0,0,0,2,2h7.295A6.991,6.991,0,0,1,12,19H5V9H19v3a6.991,6.991,0,0,1,2,.295V5a2.006,2.006,0,0,0-2-2H18V1H16V3H8V1ZM5,5H19V7H5Zm13.043,9a.254.254,0,0,0-.252.225l-.117,1.012a3.974,3.974,0,0,0-1.3.752l-.935-.406a.255.255,0,0,0-.32.108l-.936,1.621a.254.254,0,0,0,.066.33l.809.6a3.735,3.735,0,0,0,0,1.52l-.809.6a.253.253,0,0,0-.066.33l.936,1.621a.253.253,0,0,0,.32.106l.935-.4a3.957,3.957,0,0,0,1.3.752l.117,1.012a.254.254,0,0,0,.252.225h1.871a.256.256,0,0,0,.254-.225l.115-1.012a3.983,3.983,0,0,0,1.3-.752l.936.406a.255.255,0,0,0,.32-.108l.935-1.621a.254.254,0,0,0-.068-.33l-.807-.6a3.826,3.826,0,0,0,0-1.52l.807-.6a.253.253,0,0,0,.068-.33l-.935-1.621a.255.255,0,0,0-.32-.108l-.936.406a3.983,3.983,0,0,0-1.3-.752l-.115-1.012A.256.256,0,0,0,19.914,14Zm.936,3a2,2,0,1,1-2,2A2,2,0,0,1,18.979,17Z" transform="translate(-863 198)"/></g></svg>