<svg xmlns="http://www.w3.org/2000/svg" width="32" height="32" viewBox="0 0 32 32"><defs><style>.a,.b{fill:#e84750;}.a{opacity:0;}</style></defs><rect class="a" width="32" height="32"/><path class="b" d="M16,3A11.036,11.036,0,0,0,5,14v4a2.876,2.876,0,0,0,2.125,2.656,8.892,8.892,0,0,0,17.75,0A2.876,2.876,0,0,0,27,18V14A11.036,11.036,0,0,0,16,3Zm0,2a9.022,9.022,0,0,1,9,9v1.188A2.95,2.95,0,0,0,24,15H23v2h1a1,1,0,0,1,0,2H23v1A7,7,0,0,1,9,20V19H8a1,1,0,0,1,0-2H9V15a.913.913,0,0,1,.219-.719,1.328,1.328,0,0,1,.719-.344,19.623,19.623,0,0,1,3.563-.125,9.2,9.2,0,0,0,4.219-.656A4.4,4.4,0,0,0,20,9H18c0,1.547-.414,2.008-1.156,2.375a8.329,8.329,0,0,1-3.344.438A17.64,17.64,0,0,0,9.5,12a3.287,3.287,0,0,0-1.75.906A3.067,3.067,0,0,0,7,15V14A9.022,9.022,0,0,1,16,5ZM13,17a1,1,0,1,0,1,1A1,1,0,0,0,13,17Zm6,0a1,1,0,1,0,1,1A1,1,0,0,0,19,17Z"/></svg>