<svg xmlns="http://www.w3.org/2000/svg" width="24" height="24" viewBox="0 0 24 24"><defs><style>.a,.b{fill:#697077;}.a{opacity:0;}</style></defs><rect class="a" width="24" height="24"/><path class="b" d="M12,13a2,2,0,1,0,2,2A2,2,0,0,0,12,13Zm4,8V20c0-1.33-2.665-2-4-2s-4,.67-4,2v1Zm6-5v-.7c0-1.33-1.665-2.051-3-2.051s-3,.721-3,2.051V16ZM8,16v-.7c0-1.33-1.665-2.051-3-2.051S2,13.971,2,15.3V16ZM19,8a2,2,0,1,0,2,2A2,2,0,0,0,19,8ZM15,3a2,2,0,1,0,2,2A2,2,0,0,0,15,3ZM9,3a2,2,0,1,0,2,2A2,2,0,0,0,9,3ZM5,8a2,2,0,1,0,2,2A2,2,0,0,0,5,8Z"/></svg>