<svg xmlns="http://www.w3.org/2000/svg" width="24" height="24" viewBox="0 0 24 24"><defs><style>.a,.b{fill:#697077;}.a{opacity:0;}</style></defs><rect class="a" width="24" height="24"/><path class="b" d="M12,1A6,6,0,0,0,6,7c0,4.286,6,11,6,11s6-6.714,6-11A6,6,0,0,0,12,1Zm0,2a4,4,0,0,1,4,4c0,2.01-2.081,5.36-4,7.859C10.077,12.364,8,9.016,8,7A4,4,0,0,1,12,3Zm0,2a2,2,0,1,0,2,2A2,2,0,0,0,12,5ZM7.48,15.436C4.231,16.1,2,17.442,2,19c0,2.209,4.477,4,10,4s10-1.791,10-4c0-1.558-2.232-2.9-5.48-3.564-.452.661-.895,1.267-1.3,1.8,2.732.414,4.349,1.28,4.732,1.766-.515.654-3.253,2-7.947,2l0,0,0,0C7.3,21,4.567,19.655,4.051,19c.383-.487,2-1.355,4.732-1.768C8.375,16.7,7.932,16.1,7.48,15.436Z"/></svg>