<svg xmlns="http://www.w3.org/2000/svg" width="32" height="32" viewBox="0 0 32 32"><defs><style>.a,.b{fill:#e84750;}.a{opacity:0;}</style></defs><rect class="a" width="32" height="32"/><path class="b" d="M9.5,4A3.5,3.5,0,1,0,13,7.5,3.514,3.514,0,0,0,9.5,4Zm13,0A3.5,3.5,0,1,0,26,7.5,3.514,3.514,0,0,0,22.5,4ZM9.5,6A1.5,1.5,0,1,1,8,7.5,1.486,1.486,0,0,1,9.5,6Zm13,0A1.5,1.5,0,1,1,21,7.5,1.486,1.486,0,0,1,22.5,6ZM9,12a4,4,0,0,0-4,4v5.25l2,1V28H9V21L7,20V16a2,2,0,0,1,2-2h1.156a1.964,1.964,0,0,1,1.781,1.094l1.281,2.563,3.063,2.406,1.438-1.406-2.937-2.312-1.062-2.125A3.967,3.967,0,0,0,10.156,12Zm12.844,0a3.967,3.967,0,0,0-3.562,2.219l-1.062,2.125-.406.313,1.313,1.031.313.25.344-.281,1.281-2.562A1.964,1.964,0,0,1,21.844,14H23a1.984,1.984,0,0,1,2,2v4.031l-1.437.719L23,21v7h2V22.25l2-1V16a4.013,4.013,0,0,0-4-4ZM10,21v7h2V21Zm10,0v7h2V21Z"/></svg>