<svg xmlns="http://www.w3.org/2000/svg" width="32" height="32" viewBox="0 0 32 32"><defs><style>.a,.b{fill:#e84750;}.a{opacity:0;}</style></defs><rect class="a" width="32" height="32"/><path class="b" d="M22,3a6.016,6.016,0,0,0-6,6,8.051,8.051,0,0,0,.875,3.125,34.967,34.967,0,0,0,1.75,3.406c1.273,2.195,2.563,4.031,2.563,4.031L22,20.75l.813-1.187s1.288-1.836,2.563-4.031a35.07,35.07,0,0,0,1.75-3.406A8.051,8.051,0,0,0,28,9,6.016,6.016,0,0,0,22,3ZM11.969,4.938,4,8.344V27.531l8.031-3.469,8,3L28,23.656V14.938c-.637,1.223-1.344,2.395-2,3.438v3.969l-5,2.125V22.844l-1.469-2.125c-.156-.227-.34-.5-.531-.781v4.625l-6-2.25V7.438l1.094.406a7.86,7.86,0,0,1,.531-1.937ZM22,5a3.987,3.987,0,0,1,4,4,7.434,7.434,0,0,1-.687,2.313,34.691,34.691,0,0,1-1.687,3.219c-.816,1.406-1.168,1.908-1.625,2.6-.457-.688-.809-1.19-1.625-2.6a34.934,34.934,0,0,1-1.687-3.219A7.463,7.463,0,0,1,18,9,3.987,3.987,0,0,1,22,5ZM11,7.5V22.344L6,24.469V9.656Z" transform="translate(0 1)"/></svg>