<svg xmlns="http://www.w3.org/2000/svg" width="24" height="24" viewBox="0 0 24 24"><defs><style>.a,.b{fill:#697077;}.a{opacity:0;}</style></defs><rect class="a" width="24" height="24"/><path class="a" d="M17,9H14l-2,2L10,9H7V3H17Z"/><path class="b" d="M7,13a2,2,0,1,0,2,2A2,2,0,0,0,7,13Zm4,9V20.217C11,18.909,9.185,18,7,18s-4,.909-4,2.217V22Zm6-9a2,2,0,1,0,2,2A2,2,0,0,0,17,13Zm4,9V20.217C21,18.909,19.185,18,17,18s-4,.909-4,2.217V22ZM16,4V8H12.93l-.594.891-.336.5-.336-.5L11.07,8H8V4h8m0-2H8A2.006,2.006,0,0,0,6,4V8a2.006,2.006,0,0,0,2,2h2l2,3,2-3h2a2.006,2.006,0,0,0,2-2V4a2.006,2.006,0,0,0-2-2Z"/></svg>