<svg xmlns="http://www.w3.org/2000/svg" width="32" height="32" viewBox="0 0 32 32"><defs><style>.a,.b{fill:#e84750;}.a{opacity:0;}</style></defs><rect class="a" width="32" height="32"/><path class="b" d="M8,4v7h2V6H22v5h2V4ZM5,12v2H4v2H5v9a3.016,3.016,0,0,0,3,3H24a3.016,3.016,0,0,0,3-3V16h1V14H27V12H17v2h2v1H13V14h2V12Zm2,2h4v3H21V14h4V25a.987.987,0,0,1-1,1H8a.987.987,0,0,1-1-1Zm3,5a1,1,0,1,0,1,1A1,1,0,0,0,10,19Zm4,0a1,1,0,1,0,1,1A1,1,0,0,0,14,19Zm4,0a1,1,0,1,0,1,1A1,1,0,0,0,18,19Zm4,0a1,1,0,1,0,1,1A1,1,0,0,0,22,19ZM12,22a1,1,0,1,0,1,1A1,1,0,0,0,12,22Zm4,0a1,1,0,1,0,1,1A1,1,0,0,0,16,22Zm4,0a1,1,0,1,0,1,1A1,1,0,0,0,20,22Z"/></svg>