<svg xmlns="http://www.w3.org/2000/svg" width="24" height="24" viewBox="0 0 24 24"><defs><style>.a,.b{fill:#697077;}.a{opacity:0;}</style></defs><rect class="a" width="24" height="24"/><path class="a" d="M9,8h6v9H9Z"/><path class="b" d="M12,2a2,2,0,1,0,2,2A2,2,0,0,0,12,2Zm1,15h2v5H13ZM9,17h2v5H9Z"/><path class="b" d="M14,16H10V10a1,1,0,0,1,1-1h2a1,1,0,0,1,1,1ZM11,7a3,3,0,0,0-3,3v8h8V10a3,3,0,0,0-3-3ZM7,2A2,2,0,1,0,9,4,2,2,0,0,0,7,2ZM17,2a2,2,0,1,0,2,2A2,2,0,0,0,17,2ZM5,9H6.1a4.965,4.965,0,0,1,.924-2H5A2,2,0,0,0,3,9v7H4v6H6V14H5ZM19,7H16.975A4.952,4.952,0,0,1,17.9,9H19v5H18v8h2V16h1V9A2,2,0,0,0,19,7Z"/></svg>